<svg xmlns="http://www.w3.org/2000/svg" fill="#444" stroke="#444" viewBox="0 0 5000 1252.17">
    <path d="M1068.06,1001.76h-115.58l.05-322.2c-1.13-101.58-69.26-163.47-171.34-147.32-73.72,11.66-110.84,72.53-112.69,143.56l.05,325.97h-115.58l.05-331c-5.07-93.46-66.45-150.43-161.48-139.98-81.81,9-121.48,71.75-122.55,150.02l.05,320.95h-115.58V437.84h115.58v62.8c2.03.44,2.56-.7,3.81-1.85,4.04-3.74,7.87-9.61,12.51-13.87,100.79-92.56,288.81-69.46,353.67,54.63,51.02-96.97,171.11-129.96,272.65-100.47,103.06,29.93,152.15,115.48,156.44,219.13l-.05,343.56Z"/>
    <path d="M3451.32,437.84v80.38c-35.68-40.9-81.05-71.48-134.66-83.29-239.74-52.81-385.3,192.36-306,402.62,58.22,154.37,240.36,225.96,382.76,133.34,22.35-14.54,40.77-31.73,57.9-52.01v82.89h116.2l1.89-1.89V437.84h-118.09ZM3435.19,804.16c-60.71,143.43-256.98,138.36-311.8-6.45-44.4-117.26,15.43-265.26,153.04-267.81,142.46-2.65,209.53,154.32,158.76,274.26Z"/>
    <path d="M1604.1,465.25c-87.33-50.25-212.58-48.89-298.98,2.97-105.87,63.55-141.22,188.92-123.78,306.63,25.52,172.32,180.62,264.4,347.8,228.81,88.89-18.93,160.64-83.83,188.44-170.2h-125.01c-8.35,12.73-15.25,25.8-25.72,37.09-46.85,50.52-135.08,53.66-192.63,20.45-46.31-26.73-72.99-74.77-76.26-127.87h430.92c18.3-116.39-19.4-237.25-124.79-297.88ZM1299.23,668.93c3.38-28.31,12.56-56.23,29.13-79.52,80.23-112.79,283.67-66.63,282.44,79.52h-311.57Z"/>
    <polygon points="2578.17 244.42 2578.17 682.75 2581.04 681.14 2783.58 437.84 2943.76 437.84 2685.05 720.88 2943.76 1001.76 2787.35 1001.76 2586.36 768.13 2578.17 760.62 2578.17 1001.76 2461.33 1001.76 2461.33 244.42 2578.17 244.42"/>
    <path d="M4609.4,429.41c-327.73,21.58-351.8,508.93-45.21,574.47,180.04,38.49,350.54-77.91,359.61-265.19,9.19-190.06-124.34-321.78-314.39-309.28ZM4794.67,787.96c-47.58,159.91-279.27,165.16-320.09-3.46-27.98-115.59,19.64-251.57,154.91-254.6,140.17-3.14,201.29,136.69,165.18,258.06Z"/>
    <path d="M4237.78,1001.76h-115.58l.05-334.77c-4.51-72.83-45.35-127.4-120.19-136.06-91.29-10.56-157.07,43.04-162.59,134.8l.12,331.69-1.95,4.33h-114.95V437.84h116.84v62.8c63.75-71.91,170.92-88.75,259.45-56.54,87.5,31.84,133.55,110.76,138.86,201.54l-.06,356.12Z"/>
    <path d="M2344.49,616.18h-125.63c-24.62-75.65-106.64-103.92-179.65-83.52-155.53,43.45-150.46,355.37,20.88,378.52,69.53,9.39,136.02-18.26,158.77-87.77h125.63c-25.24,97.74-104.98,167.42-204.35,183.17-224.43,35.57-364.1-141.63-325.42-355.47,30.4-168.09,181.2-249.74,344.1-215.42,93.81,19.76,164.49,86.53,185.68,180.49Z"/>
    <polygon points="2183.68 187.9 2183.68 285.24 1957.54 397.65 1957.54 310.99 2183.68 187.9"/>
</svg>